<svg id="Слой_1" data-name="Слой 1" xmlns="http://www.w3.org/2000/svg" width="31" height="18" viewBox="0 0 342.31 205.53">
  <title>mc</title>
  <g id="layer1">
    <g id="g10305">
      <path id="path2268" d="M342.31,103.13c0,56.32-46.08,102.4-102.4,102.4s-102.4-46.08-102.4-102.4h0c0-56.32,46.08-102.4,102.4-102.4C297,0,342.31,46.08,342.31,103.13h0Z" fill="#f4981a"/>
      <path id="path1350" d="M101.67,0C45.35,0,0,46.08,0,102.4S46.08,204.8,102.4,204.8a101.31,101.31,0,0,0,68.75-27.06h0a140.42,140.42,0,0,0,10.24-11H160.18a88.74,88.74,0,0,1-7.31-10.24h36.57a79.94,79.94,0,0,0,5.85-11H147l-4.39-11h57.05a95.68,95.68,0,0,0,5.12-32.18,111.63,111.63,0,0,0-2.19-21.94H139.7a60.93,60.93,0,0,1,2.93-11h57.05l-4.39-11H147a79.94,79.94,0,0,1,5.85-11h36.57a104.66,104.66,0,0,0-8-11H160.91a67.77,67.77,0,0,1,10.24-10.24A104.71,104.71,0,0,0,101.67,0h0Z" fill="#cc1417"/>
      <path id="use9412" d="M332.07,156.53c0.73,0,1.46,0,1.46.73,0.73,0,.73.73,1.46,1.46,0,0.73.73,0.73,0.73,1.46s0,1.46-.73,1.46c0,0.73-.73.73-1.46,1.46-0.73,0-.73.73-1.46,0.73s-1.46,0-1.46-.73c-0.73,0-.73-0.73-1.46-1.46,0-.73-0.73-0.73-0.73-1.46s0-1.46.73-1.46c0-.73.73-0.73,1.46-1.46a2.27,2.27,0,0,1,1.46-.73m0,0.73h-1.46a0.72,0.72,0,0,0-.73.73c0,0.73-.73.73-0.73,1.46v1.46a0.72,0.72,0,0,0,.73.73h2.93a0.72,0.72,0,0,0,.73-0.73v-1.46c0-.73,0-0.73-0.73-1.46a0.72,0.72,0,0,0-.73-0.73h0m-1.46,4.39V158h2.93v1.46H332.8a0.72,0.72,0,0,0,.73.73l0.73,0.73h-0.73v-0.73a0.72,0.72,0,0,0-.73-0.73h-0.73l-1.46,2.19h0m0.73-2.19h1.46v-0.73h-1.46v0.73" fill="#f9b343"/>
    </g>
    <g id="g16480">
      <g id="g13802">
        <path id="path13804" d="M136.45,132.34l1.46-9.51H135c-3.66,0-4.39-2.19-3.66-3.66l3.66-19h5.85l0.73-9.51h-5.12l1.46-6.58h-11.7s-6.58,35.84-6.58,40.23c0,6.58,3.66,9.51,8.78,9.51C132.07,133.81,135,132.34,136.45,132.34Z" fill="#232856"/>
        <path id="path13806" d="M140.11,114.79c0,15.36,10.24,19,19,19,8,0,12.43-2.19,12.43-2.19l2.19-10.24s-6.58,2.93-12.43,2.93c-11.7,0-9.51-8.78-9.51-8.78h22.67s1.46-7.31,1.46-10.24c0-7.31-3.66-16.09-16.09-16.09C148.16,89.19,140.11,101.62,140.11,114.79Zm19-15.36c5.85,0,5.12,6.58,5.12,7.31H151.81C151.81,106,153.28,99.43,159.13,99.43Z" fill="#232856"/>
        <path id="path13808" d="M227.88,132.34l2.19-11.7s-5.12,2.93-8.78,2.93c-8,0-11-5.85-11-12.43,0-13.17,6.58-20.48,13.9-20.48a20.24,20.24,0,0,1,10.24,2.93l1.46-11.7s-5.12-3.66-11-3.66c-16.82,0-27.06,11.7-27.06,32.18,0,13.9,7.31,22.67,20.48,22.67C222,133.81,227.88,132.34,227.88,132.34Z" fill="#232856"/>
        <path id="path13810" d="M76.48,89.92a41.58,41.58,0,0,0-13.17,2.19l-1.46,9.51a28.25,28.25,0,0,1,11.7-2.19c4.39,0,7.31.73,7.31,3.66V106H76.48c-11,0-19,4.39-19,16.09,0,9.51,6.58,11.7,10.24,11.7,8,0,11-5.12,11-5.12v4.39h9.51l4.39-30C91.11,89.92,80.13,89.92,76.48,89.92Zm1.46,24.14c0,2.19-.73,10.24-7.31,10.24a4.14,4.14,0,0,1-4.39-4.39c0-2.93,1.46-6.58,9.51-6.58Z" fill="#232856"/>
        <path id="path13812" d="M101.35,133.81c2.19,0,16.82.73,16.82-13.9,0-13.9-13.17-11-13.17-16.09,0-2.93,2.19-3.66,5.85-3.66,1.46,0,7.31.73,7.31,0.73l1.46-10.24a57.81,57.81,0,0,0-10.24-.73c-8,0-16.09,2.93-16.09,14.63,0,12.43,13.9,11,13.9,16.82,0,3.66-3.66,3.66-6.58,3.66a33.66,33.66,0,0,1-9.51-1.46l-1.46,9.51C89.64,132.34,92.57,133.81,101.35,133.81Z" fill="#232856"/>
        <path id="path13814" d="M318.58,81.14l-2.19,14.63s-4.39-5.85-10.24-5.85c-12.43,0-18.29,12.43-18.29,25.6,0,8.78,4.39,17.55,13.9,17.55A14,14,0,0,0,312,128.69l-0.73,3.66h11l8-51.93Zm-5.12,28.53c0,5.85-2.93,13.17-8.78,13.17-3.66,0-5.85-3.66-5.85-8.78,0-8.78,3.66-13.9,8.78-13.9C312,100.16,313.46,103.09,313.46,109.67Z" fill="#232856"/>
        <path id="path13816" d="M17.23,133.08l6.58-39.5,0.73,39.5h7.31l14.63-39.5-6.58,39.5h11l8.78-51.93H42.1L31.86,112.6V81.14H15.77L7,133.08H17.23Z" fill="#232856"/>
        <path id="path13818" d="M185.46,133.08c2.93-18.29,4.39-32.18,13.9-29.26a63.33,63.33,0,0,1,5.85-16.09S204.48,87,201.55,87c-5.12,0-11.7,10.24-11.7,10.24l1.46-6.58H181.07l-6.58,42.42h11Z" fill="#232856"/>
        <g id="use14699">
          <path id="path13810-2" data-name="path13810" d="M251.29,89.92a41.58,41.58,0,0,0-13.17,2.19l-1.46,9.51a28.25,28.25,0,0,1,11.7-2.19c4.39,0,7.31.73,7.31,3.66V106h-4.39c-11,0-19,4.39-19,16.09,0,9.51,6.58,11.7,10.24,11.7,8,0,11-5.12,11-5.12v4.39H263l4.39-30C265.92,89.92,254.95,89.92,251.29,89.92Zm1.46,24.14c0,2.19-.73,10.24-7.31,10.24a4.14,4.14,0,0,1-4.39-4.39c0-2.93,1.46-6.58,9.51-6.58Z" fill="#232856"/>
        </g>
        <path id="use14701" d="M276.89,133.08c1.46-13.17,5.12-32.18,13.9-29.26,1.46-7.31,0-7.31-2.93-7.31H282l0.73-5.85H272.5l-6.58,42.42h11Z" fill="#232856"/>
      </g>
      <g id="g10289">
        <path id="path4157" d="M139,128.73l1.46-9.51h-2.93c-3.66,0-4.39-2.19-3.66-3.66l2.93-19h5.85l1.46-10.24H139l1.46-6.58h-11s-6.58,35.84-6.58,40.23c0,6.58,3.66,9.51,8.78,9.51C135.31,130.19,138.24,129.46,139,128.73Z" fill="#fff"/>
        <path id="path4155" d="M142.63,111.18c0,15.36,10.24,19,19,19,8,0,11.7-1.46,11.7-1.46l2.19-10.24a30.26,30.26,0,0,1-11.7,2.93c-11.7,0-9.51-8.78-9.51-8.78h21.94s1.46-7.31,1.46-10.24c0-7.31-3.66-16.09-15.36-16.09S142.63,98,142.63,111.18Zm19-15.36c5.85,0,5.12,6.58,5.12,7.31H154.33C155.06,102.4,155.79,95.82,161.65,95.82Z" fill="#fff"/>
        <path id="path4151" d="M231.13,128.73l2.19-11.7s-5.12,2.93-8.78,2.93c-8,0-11-5.85-11-12.43,0-13.17,6.58-19.75,13.9-19.75a20.24,20.24,0,0,1,10.24,2.93L239.18,79s-6.58-2.93-12.43-2.93c-12.43,0-24.87,11-24.87,31.45,0,13.9,6.58,22.67,19.75,22.67A51.19,51.19,0,0,0,231.13,128.73Z" fill="#fff"/>
        <path id="path4149" d="M79,86.31A41.58,41.58,0,0,0,65.83,88.5L64.37,98a28.25,28.25,0,0,1,11.7-2.19c4.39,0,7.31.73,7.31,3.66v2.93H79c-9.51,0-19,4.39-19,16.09,0,9.51,6.58,11.7,10.24,11.7,8,0,11-5.12,11-5.12v4.39H90.7l4.39-30C94.35,87,83.38,86.31,79,86.31Zm2.19,24.14c0,2.19-1.46,10.24-8,10.24a4.14,4.14,0,0,1-4.39-4.39c0-2.93,1.46-6.58,9.51-6.58Z" fill="#fff"/>
        <path id="path4145" d="M104.59,130.19c2.19,0,16.82.73,16.82-13.9,0-13.9-13.17-11-13.17-16.09,0-2.93,2.19-3.66,5.85-3.66,1.46,0,7.31.73,7.31,0.73l1.46-9.51A57.81,57.81,0,0,0,112.64,87c-8,0-16.09,2.93-16.09,14.63,0,12.43,13.9,11,13.9,16.82,0,3.66-3.66,3.66-6.58,3.66a33.66,33.66,0,0,1-9.51-1.46l-1.46,9.51C92.16,128.73,95.09,130.19,104.59,130.19Z" fill="#fff"/>
        <path id="path4139" d="M321.83,77.53l-2.19,14.63s-4.39-5.85-10.24-5.85c-10.24,0-18.29,12.43-18.29,25.6,0,8.78,4.39,17.55,13.9,17.55a14,14,0,0,0,10.24-4.39l-0.73,3.66h11l8-51.93Zm-5.12,28.53c0,5.85-2.93,13.17-8.78,13.17-3.66,0-5.85-3.66-5.85-8.78,0-8.78,3.66-13.9,8.78-13.9C314.51,97.28,316.71,99.47,316.71,106.06Z" fill="#fff"/>
        <path id="path4133" d="M19.75,129.46L26.33,90l0.73,39.5h7.31L48.27,90l-6.58,39.5h11l8.78-51.93H43.89l-11,32.18L32.18,77.53H16.09L7.31,129.46H19.75Z" fill="#fff"/>
        <path id="path4131" d="M188.71,129.46c2.93-18.29,3.66-32.91,11.7-30A37.79,37.79,0,0,1,204.8,87h-2.19c-5.12,0-8.78,6.58-8.78,6.58l0.73-5.85H184.32l-6.58,42.42h11v-0.73Z" fill="#fff"/>
        <g id="use8523">
          <path id="path4149-2" data-name="path4149" d="M256,86.31a41.58,41.58,0,0,0-13.17,2.19L241.42,98a28.25,28.25,0,0,1,11.7-2.19c4.39,0,7.31.73,7.31,3.66v2.93H256c-9.51,0-19,4.39-19,16.09,0,9.51,6.58,11.7,10.24,11.7,8,0,11-5.12,11-5.12v4.39h9.51l4.39-30C271.41,87,260.43,86.31,256,86.31ZM259,110.45c0,2.19-1.46,10.24-8,10.24a4.14,4.14,0,0,1-4.39-4.39c0-2.93,1.46-6.58,9.51-6.58C258.24,110.45,258.24,110.45,259,110.45Z" fill="#fff"/>
        </g>
        <g id="use8525">
          <path id="path4131-2" data-name="path4131" d="M280,129.46c2.93-18.29,3.66-32.91,11.7-30A37.79,37.79,0,0,1,296.12,87h-2.19c-5.12,0-8.78,6.58-8.78,6.58l0.73-5.85H275.64l-6.58,42.42h11v-0.73Z" fill="#fff"/>
        </g>
        <path id="text9407" d="M332.07,122.88c0.73,0,1.46,0,1.46.73,0.73,0,.73.73,1.46,1.46,0,0.73.73,0.73,0.73,1.46s0,1.46-.73,1.46c0,0.73-.73.73-1.46,1.46-0.73,0-.73.73-1.46,0.73s-1.46,0-1.46-.73c-0.73,0-.73-0.73-1.46-1.46,0-.73-0.73-0.73-0.73-1.46s0-1.46.73-1.46c0-.73.73-0.73,1.46-1.46a2.55,2.55,0,0,0,1.46-.73m0,0.73h-1.46a0.72,0.72,0,0,0-.73.73c0,0.73-.73.73-0.73,1.46v1.46a0.72,0.72,0,0,0,.73.73h2.93a0.72,0.72,0,0,0,.73-0.73v-1.46c0-.73,0-0.73-0.73-1.46a0.72,0.72,0,0,0-.73-0.73h0M330.61,128v-3.66h2.93v1.46H332.8a0.72,0.72,0,0,0,.73.73l0.73,0.73h-0.73v-0.73a0.72,0.72,0,0,0-.73-0.73h-0.73L330.61,128h0m0.73-1.46h1.46v-0.73h-1.46v0.73" fill="#fff"/>
      </g>
    </g>
  </g>
</svg>
