<svg id="Layer_1" data-name="Layer 1" xmlns="http://www.w3.org/2000/svg" width="34" height="10" viewBox="0 0 200.29 62.82">
  <title>visa_small</title>
  <g>
    <path d="M113.18,4.55c9.8-5.67,22.13-5.71,32.62-1.94C145,7,144.24,11.36,143.53,15.74c-5.61-2.54-12-3.84-18.09-2.38C123,14,120,16.1,120.77,19c1.14,2.69,4.06,3.88,6.45,5.24,4.94,2.47,10.29,4.86,13.58,9.53,3.57,4.94,3.12,11.83.43,17.06-3,5.72-9,9.22-15,10.77-4.9,1.41-10.06,1.25-15.11,1.11a43.33,43.33,0,0,1-13.81-3c0.21-4.53,1.53-9,2-13.59,6.43,2.8,13.43,4.94,20.52,3.77,2.46-.48,5.19-1.53,6.3-4a4.52,4.52,0,0,0-1.49-5.34c-3.55-3-8.17-4.33-12-6.9-4.11-2.58-7.9-6.46-8.62-11.45C102.83,15.15,107.05,8,113.18,4.55Z" fill="#0357a0"/>
    <path d="M56.39,3.12c0.39-.75.5-2.22,1.7-2,5.41-.06,10.82,0,16.24,0C65.76,21.38,57.36,41.72,48.8,62c-5.74,0-11.47,0-17.21,0-4.7-17.68-9.82-35.26-14.33-53A50.54,50.54,0,0,1,39.2,33.42c1,2.9,1.3,6,1.93,9,1.09-1.41,1.44-3.19,2.09-4.81C47.61,26.11,52,14.63,56.39,3.12Z" fill="#0357a0"/>
    <path d="M80.85,1.13C86.27,1,91.69,1.12,97.11,1Q92,31.53,87,62c-5.4.22-10.79,0-16.19,0.12C74,41.79,77.59,21.48,80.85,1.13Z" fill="#0357a0"/>
    <path d="M166.19,6.29a7.72,7.72,0,0,1,6.41-5c4.86-.4,9.76-0.11,14.64-0.15,4.3,20.33,9,40.59,13,61-4.88-.07-9.75.12-14.61-0.07-1.41-2.68-1.35-6.18-2.33-9.14-6.9,0-13.8,0-20.7-.05-1.14,3-2.28,6-3.3,9.09-5.72.34-11.44,0.07-17.15,0.16Q154.17,34.19,166.19,6.29ZM174.93,20c-2.38,6.9-5.07,13.67-7.68,20.48q6.77,0,13.55,0c-1.68-7.5-3.27-15-4.84-22.55A9.86,9.86,0,0,0,174.93,20Z" fill="#0357a0"/>
    <path d="M0,1.24C8.78,1,17.58,1.16,26.36,1.14c3.27-.15,7,1.64,7.52,5.16,1.77,9,3.88,18,5.32,27.12A50.54,50.54,0,0,0,17.26,9,69.79,69.79,0,0,0,.64,2.21Z" fill="#f9a61a"/>
  </g>
</svg>
